<svg xmlns="http://www.w3.org/2000/svg" width="32" height="32" viewBox="0 0 32 32" fill="none"><circle cx="16" cy="16" r="16" fill="#5E5461"></circle><path d="M24.25 7.75H7.75V24.25H24.25V7.75Z" fill="#ECEFF1"></path><path d="M16 17.7354L24.25 24.2502V11.3884L16 17.7354Z" fill="#CFD8DC"></path><path d="M24.9375 7.75H24.25L16 14.2648L7.75 7.75H7.0625C5.924 7.75 5 8.674 5 9.8125V22.1875C5 23.326 5.924 24.25 7.0625 24.25H7.75V11.3882L16 17.7339L24.25 11.3869V24.25H24.9375C26.076 24.25 27 23.326 27 22.1875V9.8125C27 8.674 26.076 7.75 24.9375 7.75Z" fill="#F44336"></path></svg>