<svg xmlns="http://www.w3.org/2000/svg" width="192" height="32" viewBox="0 0 192 32" fill="none"><path d="M28.6936 24.2155C31.787 25.3104 35.3793 26.0071 38.5724 25.808C40.7677 25.7085 44.36 25.2108 45.757 23.3198C48.6508 19.4381 41.566 19.7367 39.1712 20.4334C40.6679 17.9452 37.4748 15.4569 34.9801 14.9593C31.787 14.3621 27.7956 14.6607 24.3031 15.656C24.802 15.0588 25.2011 14.2625 25.2011 13.3668C25.4007 11.0776 23.6046 9.68416 21.4093 10.0823C18.1163 10.5799 15.023 13.2672 12.4286 15.2578C9.03585 17.7461 5.54337 20.3339 1.25258 21.2296H1.15279C0.953216 21.2296 0.85343 21.1301 0.653859 21.1301C-0.0446413 20.9311 -0.244201 21.9264 0.354514 22.1254C3.54766 23.4193 6.94036 24.3151 10.2333 25.4099C13.3267 26.4052 16.3202 27.5996 19.5134 28.2963C23.2054 28.993 28.0949 28.1967 28.6936 24.2155ZM14.4243 25.4099C12.0294 24.6137 9.73437 23.8174 7.33951 23.0212C9.73437 23.3198 12.3288 23.2202 14.4243 23.1207C18.4157 22.9217 23.3052 22.6231 26.8975 20.732C27.1968 20.5329 27.0971 20.0353 26.6979 20.0353C24.802 20.2343 23.0059 20.8315 21.1099 21.1301C18.9146 21.5282 16.6196 21.7273 14.3245 21.8268C12.3288 21.9264 10.3331 21.8268 8.33737 21.7273C7.13994 21.6278 5.84271 21.4287 4.5455 21.2296C7.83842 20.1348 10.6324 18.1442 13.5262 16.0541C15.4221 14.6607 17.3181 13.2673 19.4136 12.1724C21.0101 11.3762 24.7022 10.4804 23.9039 13.7649C23.5048 15.5564 21.3095 16.2531 19.9125 17.2484C19.8127 17.348 19.7129 17.547 19.7129 17.6466C19.7129 17.8456 19.9125 18.1442 20.2119 18.1442C23.5048 17.4475 26.4983 16.3527 29.8911 16.1536C32.2859 15.9546 40.9673 16.1536 37.7742 20.732C37.6744 20.9311 37.6744 21.0306 37.7742 21.2296C37.7742 21.3292 37.8739 21.4287 38.0735 21.4287C39.4705 21.6278 41.9652 20.9311 43.2624 21.2296C45.6572 21.8268 44.6594 23.0212 43.7613 23.4193C43.2624 23.7179 42.7634 23.917 42.1647 24.116C41.1669 24.4146 40.169 24.6137 39.1712 24.7132C35.3793 25.1113 31.8868 23.8174 28.1947 23.3198C27.7956 23.2202 27.4962 23.6184 27.6958 24.0165C26.199 29.7892 18.5155 26.7038 14.4243 25.4099Z" fill="#375E5A"></path><path d="M31.2878 20.2344C31.687 20.1349 31.6869 19.5377 31.3876 19.4382C30.7889 19.1396 29.9906 19.1396 29.2921 19.3387C28.5936 19.5377 28.8929 20.7321 29.5914 20.533C30.1902 20.334 30.7889 20.334 31.2878 20.2344Z" fill="#375E5A"></path><path d="M74.0966 15.5566C75.2941 15.0589 76.2919 13.3669 76.0923 12.1726C78.0881 12.0731 80.0838 11.5754 81.9797 10.7792C83.2769 10.182 85.1728 9.38575 85.2726 7.69374C85.4722 3.61301 79.2855 4.60831 75.8928 5.50408C76.8906 4.40925 77.4893 2.9163 76.5913 1.52288C75.2941 -0.467721 72.2007 -0.169131 70.3048 0.527579C62.6213 3.01583 59.4281 12.0731 51.4453 13.8646C50.8465 13.8646 50.2478 13.8646 49.5493 14.0636C49.1502 14.1632 49.1502 14.7604 49.6491 14.7604H49.7489C49.7489 14.7604 49.8487 14.8599 49.9485 14.8599C50.3476 14.8599 50.8466 14.8599 51.2457 14.8599C54.7382 15.3575 57.8316 17.9453 61.5236 17.5472C63.1202 17.3481 64.8166 16.3528 65.0161 14.8599C67.7103 16.3528 71.3026 16.751 74.0966 15.5566ZM69.4067 14.8599C67.5108 14.6608 65.9142 13.9641 64.3176 13.0683C63.6191 12.6702 62.9206 13.566 63.6191 14.0636C63.7189 14.0636 63.7189 14.1632 63.8187 14.1632C63.4195 16.1538 61.1245 16.4524 59.3283 16.1538C58.1309 15.9547 56.9335 15.4571 55.7361 14.9594C55.3369 14.8599 55.0376 14.6608 54.6384 14.5613C56.9335 13.8646 59.2286 12.8693 61.5236 12.1726C65.0161 11.0778 68.5086 10.381 72.0011 9.38574C72.6996 9.18668 72.5 8.29091 71.8015 8.29091C68.4088 8.5895 65.1159 9.48528 61.823 10.4806C60.6255 10.8787 59.4281 11.1773 58.2307 11.6749C59.5279 10.6796 60.6255 9.48527 61.823 8.39044C63.6191 6.49937 65.4153 4.6083 67.6106 3.11535C69.1073 2.12005 70.8037 1.32382 72.5998 1.22429C73.1986 1.22429 74.0966 1.12475 74.5956 1.42334C77.2898 2.91629 74.8949 5.00642 73.9968 5.90219C73.5977 6.30031 74.0966 6.99702 74.4958 6.79796C75.8928 6.5989 77.0902 6.10125 78.4872 5.90219C79.2855 5.80266 80.1836 5.80266 80.9818 5.80266C83.0773 5.90219 84.5741 7.39514 83.1771 8.78856C81.2812 10.6796 77.4893 10.9782 74.7951 11.0777C74.6953 11.0777 74.5955 11.0777 74.396 11.0777C74.2962 11.0777 74.1964 11.0778 74.0966 11.1773C73.6975 11.3763 73.7973 12.073 74.2962 12.073C74.396 12.073 74.5956 12.073 74.6953 12.073C76.7908 13.566 72.5001 14.6608 72.1009 14.6608C71.2028 14.9594 70.3048 14.9594 69.4067 14.8599Z" fill="#375E5A"></path><path d="M112.515 30.2872C113.812 29.1923 114.311 27.5999 113.712 26.2064C117.504 27.3013 125.187 26.306 123.691 21.9267C122.992 19.737 119.3 19.6375 117.604 19.2393C114.411 18.6422 111.018 18.045 107.725 17.8459C108.723 17.1492 109.421 16.2535 109.421 14.9596C109.521 13.0685 107.924 11.8741 106.029 11.7746C102.935 11.6751 99.3429 13.6657 96.5489 14.7605C93.6551 15.7558 90.7613 16.7511 87.8675 17.8459C87.3686 17.9455 86.8696 18.045 86.4705 18.244C86.3707 18.244 86.2709 18.4431 86.2709 18.5426C86.0713 18.6422 85.8718 18.7417 85.6722 18.8412C84.8739 18.9408 84.1754 19.0403 83.3771 19.3389C82.978 19.4384 83.0778 20.0356 83.4769 20.0356C83.8761 19.9361 84.2752 19.9361 84.6744 19.9361C84.7742 19.9361 84.8739 19.9361 84.9737 19.9361H85.0735C86.8697 19.8365 88.566 20.1351 90.1626 20.7323H90.2623C92.4576 21.5285 94.4533 23.0215 96.2495 25.1116C98.345 27.5999 100.341 30.1877 103.534 31.382C106.228 32.3773 110.12 32.2778 112.515 30.2872ZM102.536 29.3914C100.041 27.998 98.345 25.4102 96.4491 23.3201C94.2538 21.0309 91.5596 19.3389 88.566 18.8412C88.6658 18.8412 88.7656 18.7417 88.8654 18.7417C90.5617 18.6422 92.2581 18.6422 94.0542 18.9408C96.2495 19.3389 98.345 20.2347 100.441 20.9314C100.74 21.0309 100.939 20.5332 100.74 20.4337C98.6443 18.7417 95.4512 17.8459 92.4576 17.5473C94.2538 16.9502 96.1497 16.2535 97.9459 15.6563C100.041 14.9596 102.037 14.1633 104.133 13.4666C105.629 13.0685 108.922 12.5708 107.924 15.7558C107.426 17.1492 105.53 17.6469 104.332 18.045C103.534 18.3436 103.933 19.5379 104.731 19.2393C104.931 19.1398 105.031 19.1398 105.23 19.0403C105.23 19.0403 105.23 19.0403 105.33 19.0403C110.02 19.6375 114.61 19.8365 119.3 20.8318C120.298 21.0309 123.79 21.429 121.795 23.7182C121.096 24.5144 119.001 24.813 118.103 24.9126C116.107 25.1116 114.71 24.9126 112.814 24.9126C112.714 24.813 112.515 24.9126 112.415 24.9126C112.315 24.9126 112.315 24.9126 112.315 25.0121C112.016 25.2111 111.916 25.7088 112.215 26.0074C115.109 28.7942 109.222 30.3867 107.825 30.3867C105.829 30.6853 104.033 30.2872 102.536 29.3914Z" fill="#375E5A"></path><path d="M108.223 22.922C107.425 22.5239 106.427 22.4243 105.629 22.1257C104.531 21.8271 103.434 21.429 102.436 20.9314C102.037 20.7323 101.837 21.23 102.136 21.429C103.733 22.5239 106.128 23.8177 108.123 23.4196C108.423 23.5192 108.523 23.121 108.223 22.922Z" fill="#375E5A"></path><path d="M178.971 20.4337C181.565 21.3295 185.756 21.429 186.255 17.9455C188.45 18.3436 191.444 17.8459 191.943 15.2581C192.442 12.6704 189.548 11.8741 187.652 11.476C183.561 10.5802 179.37 10.2816 175.179 10.5802C171.686 10.7793 166.697 10.9784 163.703 13.0685C163.404 13.2675 163.504 13.8647 163.903 13.8647C164.402 13.8647 164.801 13.7652 165.3 13.7652C170.788 13.9642 174.081 18.7417 178.971 20.4337ZM178.771 11.5755C181.166 11.5755 183.461 11.7746 185.856 12.1727C186.455 12.2722 187.053 12.3718 187.552 12.4713C189.548 12.8694 190.745 13.2675 190.745 14.86C190.845 16.4525 188.65 17.4478 185.756 17.3483C185.556 17.3483 185.457 17.3483 185.457 17.4478C185.457 17.4478 185.357 17.5473 185.357 17.6469C183.062 23.3201 175.478 17.0497 172.584 15.1586C175.278 15.8553 178.172 16.0544 180.567 15.4572C180.866 15.3577 180.866 14.9596 180.567 14.9596C178.372 14.661 176.276 14.7605 174.081 14.3624C172.285 14.0638 170.589 13.4666 168.992 12.8694C169.491 12.7699 170.09 12.5708 170.589 12.4713C173.283 11.8741 176.077 11.5755 178.771 11.5755Z" fill="#375E5A"></path><path d="M153.625 13.4665C155.521 11.9735 156.419 9.5848 154.722 7.5942C153.126 5.70313 150.232 5.50407 148.037 6.30031C146.241 4.21018 143.347 4.11066 141.052 5.20549C136.462 7.29562 134.666 12.4712 129.477 13.7651C128.878 13.8646 129.078 14.6608 129.576 14.7604C129.576 14.8599 129.676 14.8599 129.776 14.8599C136.462 16.6514 147.438 18.2439 153.625 13.4665ZM145.542 15.1585C141.251 15.6561 137.06 14.9594 132.869 14.3622C134.566 14.1632 136.362 13.8646 137.958 13.3669C140.453 12.7698 143.347 12.073 145.442 10.5801C145.842 10.2815 145.542 9.68433 145.143 9.78386C142.648 10.2815 140.154 11.4759 137.659 12.1726C136.462 12.4712 135.264 12.7698 134.067 12.9688C135.164 12.1726 136.162 11.1773 137.06 10.182C139.455 7.59421 143.447 3.71254 147.039 6.69844C146.839 6.8975 147.039 7.29561 147.238 7.29561C148.536 7.39514 149.733 6.99702 151.03 7.09655C153.425 7.29561 155.72 9.58481 153.625 11.9735C151.729 14.0637 148.236 14.7604 145.542 15.1585Z" fill="#375E5A"></path></svg>