<svg xmlns="http://www.w3.org/2000/svg" width="192" height="32" viewBox="0 0 192 32" fill="none"><path d="M163.306 24.2155C160.213 25.3104 156.621 26.0071 153.428 25.808C151.232 25.7085 147.64 25.2108 146.243 23.3198C143.349 19.4381 150.434 19.7367 152.829 20.4334C151.332 17.9452 154.525 15.4569 157.02 14.9593C160.213 14.3621 164.204 14.6607 167.697 15.656C167.198 15.0588 166.799 14.2625 166.799 13.3668C166.599 11.0776 168.395 9.68416 170.591 10.0823C173.884 10.5799 176.977 13.2672 179.571 15.2578C182.964 17.7461 186.457 20.3339 190.747 21.2296H190.847C191.047 21.2296 191.147 21.1301 191.346 21.1301C192.045 20.9311 192.244 21.9264 191.645 22.1254C188.452 23.4193 185.06 24.3151 181.767 25.4099C178.673 26.4052 175.68 27.5996 172.487 28.2963C168.795 28.993 163.905 28.1967 163.306 24.2155ZM177.576 25.4099C179.971 24.6137 182.266 23.8174 184.66 23.0212C182.266 23.3198 179.671 23.2202 177.576 23.1207C173.584 22.9217 168.695 22.6231 165.103 20.732C164.803 20.5329 164.903 20.0353 165.302 20.0353C167.198 20.2343 168.994 20.8315 170.89 21.1301C173.085 21.5282 175.38 21.7273 177.675 21.8268C179.671 21.9264 181.667 21.8268 183.663 21.7273C184.86 21.6278 186.157 21.4287 187.455 21.2296C184.162 20.1348 181.368 18.1442 178.474 16.0541C176.578 14.6607 174.682 13.2673 172.586 12.1724C170.99 11.3762 167.298 10.4804 168.096 13.7649C168.495 15.5564 170.691 16.2531 172.088 17.2484C172.187 17.348 172.287 17.547 172.287 17.6466C172.287 17.8456 172.087 18.1442 171.788 18.1442C168.495 17.4475 165.502 16.3527 162.109 16.1536C159.714 15.9546 151.033 16.1536 154.226 20.732C154.326 20.9311 154.326 21.0306 154.226 21.2296C154.226 21.3292 154.126 21.4287 153.926 21.4287C152.529 21.6278 150.035 20.9311 148.738 21.2296C146.343 21.8268 147.341 23.0212 148.239 23.4193C148.738 23.7179 149.237 23.917 149.835 24.116C150.833 24.4146 151.831 24.6137 152.829 24.7132C156.621 25.1113 160.113 23.8174 163.805 23.3198C164.204 23.2202 164.504 23.6184 164.304 24.0165C165.801 29.7892 173.485 26.7038 177.576 25.4099Z" fill="#375E5A"></path><path d="M160.712 20.2344C160.313 20.1349 160.313 19.5377 160.612 19.4382C161.211 19.1396 162.009 19.1396 162.708 19.3387C163.406 19.5377 163.107 20.7321 162.409 20.533C161.81 20.334 161.211 20.334 160.712 20.2344Z" fill="#375E5A"></path><path d="M117.903 15.5566C116.706 15.0589 115.708 13.3669 115.908 12.1726C113.912 12.0731 111.916 11.5754 110.02 10.7792C108.723 10.182 106.827 9.38575 106.727 7.69374C106.528 3.61301 112.715 4.60831 116.107 5.50408C115.109 4.40925 114.511 2.9163 115.409 1.52288C116.706 -0.467721 119.799 -0.169131 121.695 0.527579C129.379 3.01583 132.572 12.0731 140.555 13.8646C141.153 13.8646 141.752 13.8646 142.451 14.0636C142.85 14.1632 142.85 14.7604 142.351 14.7604H142.251C142.251 14.7604 142.151 14.8599 142.052 14.8599C141.652 14.8599 141.153 14.8599 140.754 14.8599C137.262 15.3575 134.168 17.9453 130.476 17.5472C128.88 17.3481 127.183 16.3528 126.984 14.8599C124.29 16.3528 120.697 16.751 117.903 15.5566ZM122.593 14.8599C124.489 14.6608 126.086 13.9641 127.682 13.0683C128.381 12.6702 129.079 13.566 128.381 14.0636C128.281 14.0636 128.281 14.1632 128.181 14.1632C128.58 16.1538 130.876 16.4524 132.672 16.1538C133.869 15.9547 135.067 15.4571 136.264 14.9594C136.663 14.8599 136.962 14.6608 137.362 14.5613C135.067 13.8646 132.771 12.8693 130.476 12.1726C126.984 11.0778 123.491 10.381 119.999 9.38574C119.3 9.18668 119.5 8.29091 120.198 8.29091C123.591 8.5895 126.884 9.48528 130.177 10.4806C131.374 10.8787 132.572 11.1773 133.769 11.6749C132.472 10.6796 131.374 9.48527 130.177 8.39044C128.381 6.49937 126.585 4.6083 124.389 3.11535C122.893 2.12005 121.196 1.32382 119.4 1.22429C118.801 1.22429 117.903 1.12475 117.404 1.42334C114.71 2.91629 117.105 5.00642 118.003 5.90219C118.402 6.30031 117.903 6.99702 117.504 6.79796C116.107 6.5989 114.91 6.10125 113.513 5.90219C112.715 5.80266 111.816 5.80266 111.018 5.80266C108.923 5.90219 107.426 7.39514 108.823 8.78856C110.719 10.6796 114.511 10.9782 117.205 11.0777C117.305 11.0777 117.404 11.0777 117.604 11.0777C117.704 11.0777 117.804 11.0778 117.903 11.1773C118.303 11.3763 118.203 12.073 117.704 12.073C117.604 12.073 117.404 12.073 117.305 12.073C115.209 13.566 119.5 14.6608 119.899 14.6608C120.797 14.9594 121.695 14.9594 122.593 14.8599Z" fill="#375E5A"></path><path d="M79.4854 30.2872C78.1882 29.1923 77.6893 27.5999 78.288 26.2064C74.4962 27.3013 66.8126 26.306 68.3094 21.9267C69.0079 19.737 72.7 19.6375 74.3963 19.2393C77.5895 18.6422 80.9822 18.045 84.2752 17.8459C83.2773 17.1492 82.5788 16.2535 82.5788 14.9596C82.479 13.0685 84.0756 11.8741 85.9715 11.7746C89.0648 11.6751 92.6571 13.6657 95.4511 14.7605C98.3449 15.7558 101.239 16.7511 104.133 17.8459C104.631 17.9455 105.13 18.045 105.529 18.244C105.629 18.244 105.729 18.4431 105.729 18.5426C105.929 18.6422 106.128 18.7417 106.328 18.8412C107.126 18.9408 107.825 19.0403 108.623 19.3389C109.022 19.4384 108.922 20.0356 108.523 20.0356C108.124 19.9361 107.725 19.9361 107.326 19.9361C107.226 19.9361 107.126 19.9361 107.026 19.9361H106.926C105.13 19.8365 103.434 20.1351 101.837 20.7323H101.738C99.5424 21.5285 97.5467 23.0215 95.7505 25.1116C93.655 27.5999 91.6593 30.1877 88.4661 31.382C85.7719 32.3773 81.8803 32.2778 79.4854 30.2872ZM89.464 29.3914C91.9586 27.998 93.655 25.4102 95.5509 23.3201C97.7462 21.0309 100.44 19.3389 103.434 18.8412C103.334 18.8412 103.234 18.7417 103.135 18.7417C101.438 18.6422 99.7419 18.6422 97.9458 18.9408C95.7505 19.3389 93.655 20.2347 91.5595 20.9314C91.2601 21.0309 91.0606 20.5332 91.2602 20.4337C93.3557 18.7417 96.5488 17.8459 99.5424 17.5473C97.7462 16.9502 95.8503 16.2535 94.0541 15.6563C91.9586 14.9596 89.9629 14.1633 87.8674 13.4666C86.3706 13.0685 83.0777 12.5708 84.0756 15.7558C84.5745 17.1492 86.4704 17.6469 87.6679 18.045C88.4661 18.3436 88.067 19.5379 87.2687 19.2393C87.0692 19.1398 86.9694 19.1398 86.7698 19.0403C86.7698 19.0403 86.7698 19.0403 86.67 19.0403C81.9801 19.6375 77.3899 19.8365 72.7 20.8318C71.7021 21.0309 68.2096 21.429 70.2054 23.7182C70.9039 24.5144 72.9993 24.813 73.8974 24.9126C75.8931 25.1116 77.2901 24.9126 79.1861 24.9126C79.2859 24.813 79.4854 24.9126 79.5852 24.9126C79.685 24.9126 79.685 24.9126 79.685 25.0121C79.9844 25.2111 80.0842 25.7088 79.7848 26.0074C76.891 28.7942 82.7784 30.3867 84.1754 30.3867C86.1711 30.6853 87.9672 30.2872 89.464 29.3914Z" fill="#375E5A"></path><path d="M83.7768 22.922C84.5751 22.5239 85.5729 22.4243 86.3712 22.1257C87.4688 21.8271 88.5665 21.429 89.5643 20.9314C89.9635 20.7323 90.163 21.23 89.8637 21.429C88.2671 22.5239 85.8722 23.8177 83.8765 23.4196C83.5772 23.5192 83.4774 23.121 83.7768 22.922Z" fill="#375E5A"></path><path d="M13.0294 20.4337C10.435 21.3295 6.244 21.429 5.74507 17.9455C3.54978 18.3436 0.5562 17.8459 0.057272 15.2581C-0.441656 12.6704 2.45215 11.8741 4.34808 11.476C8.43929 10.5802 12.6303 10.2816 16.8213 10.5802C20.3138 10.7793 25.3031 10.9784 28.2966 13.0685C28.596 13.2675 28.4962 13.8647 28.0971 13.8647C27.5981 13.8647 27.199 13.7652 26.7001 13.7652C21.2119 13.9642 17.9189 18.7417 13.0294 20.4337ZM13.229 11.5755C10.8341 11.5755 8.53906 11.7746 6.14421 12.1727C5.54549 12.2722 4.9468 12.3718 4.44787 12.4713C2.45215 12.8694 1.25471 13.2675 1.25471 14.86C1.15493 16.4525 3.35021 17.4478 6.244 17.3483C6.44357 17.3483 6.54334 17.3483 6.54334 17.4478C6.54334 17.4478 6.64314 17.5473 6.64314 17.6469C8.93821 23.3201 16.5219 17.0497 19.4157 15.1586C16.7215 15.8553 13.8277 16.0544 11.4329 15.4572C11.1335 15.3577 11.1335 14.9596 11.4329 14.9596C13.6282 14.661 15.7237 14.7605 17.9189 14.3624C19.7151 14.0638 21.4114 13.4666 23.008 12.8694C22.5091 12.7699 21.9104 12.5708 21.4114 12.4713C18.7172 11.8741 15.9232 11.5755 13.229 11.5755Z" fill="#375E5A"></path><path d="M38.3752 13.4665C36.4793 11.9735 35.5812 9.5848 37.2776 7.5942C38.8742 5.70313 41.7679 5.50407 43.9632 6.30031C45.7593 4.21018 48.6531 4.11066 50.9482 5.20549C55.5383 7.29562 57.3345 12.4712 62.5234 13.7651C63.1221 13.8646 62.9225 14.6608 62.4236 14.7604C62.4236 14.8599 62.3238 14.8599 62.224 14.8599C55.5384 16.6514 44.5619 18.2439 38.3752 13.4665ZM46.4578 15.1585C50.7486 15.6561 54.9396 14.9594 59.1306 14.3622C57.4343 14.1632 55.6381 13.8646 54.0416 13.3669C51.5469 12.7698 48.6531 12.073 46.5576 10.5801C46.1585 10.2815 46.4579 9.68433 46.857 9.78386C49.3517 10.2815 51.8463 11.4759 54.3409 12.1726C55.5384 12.4712 56.7358 12.7698 57.9332 12.9688C56.8356 12.1726 55.8377 11.1773 54.9396 10.182C52.5448 7.59421 48.5533 3.71254 44.9611 6.69844C45.1606 6.8975 44.9611 7.29561 44.7615 7.29561C43.4643 7.39514 42.2668 6.99702 40.9696 7.09655C38.5748 7.29561 36.2797 9.58481 38.3752 11.9735C40.2712 14.0637 43.7636 14.7604 46.4578 15.1585Z" fill="#375E5A"></path></svg>