<svg xmlns="http://www.w3.org/2000/svg" width="192" height="34" viewBox="0 0 192 34" fill="none"><path d="M136.411 1.90157C136.712 1.70612 136.812 1.21751 136.511 1.02206C131.707 -1.22557 126.201 1.11978 122.297 3.85603C117.192 7.47179 113.188 11.7716 107.181 14.117C107.081 14.2147 106.981 14.3124 106.981 14.4102C106.681 14.6056 106.781 15.0942 107.181 15.0942C109.984 14.8988 112.687 14.117 115.49 13.5307C118.493 12.8466 121.496 12.2602 124.299 11.1853C129.104 9.32854 132.808 5.8105 136.411 1.90157ZM122.697 10.5012C120.795 11.0876 118.893 11.5762 116.992 11.9671C120.395 10.8921 123.698 9.32854 126.201 7.27635C126.401 7.17862 126.201 6.88546 126.001 6.88546C123.298 7.86269 120.795 9.42628 118.093 10.5012C116.591 11.0876 115.09 11.6739 113.588 12.1625C115.69 10.7944 117.592 9.03538 119.494 7.47181C124.099 3.6606 129.004 0.533459 135.11 1.70614C131.406 5.41962 127.803 8.83994 122.697 10.5012Z" fill="white"></path><path d="M164.441 1.11996C164.841 0.63134 164.24 0.0450124 163.84 0.338182C157.834 -1.22539 151.227 2.97669 146.322 5.90839C140.216 9.62188 134.41 13.2376 127.303 14.7035C127.002 14.8012 127.002 15.1921 127.303 15.2898C127.303 15.3876 127.403 15.583 127.503 15.583C131.006 15.7784 134.61 14.9967 138.014 14.4103C141.717 13.7263 145.421 13.0422 148.925 11.8695C155.231 9.81733 160.136 5.81067 164.441 1.11996ZM148.024 11.0877C150.727 9.81734 153.329 8.15603 155.131 6.00612C155.331 5.71295 155.031 5.32206 154.731 5.5175C151.027 7.86286 147.824 10.4037 143.619 11.9672C142.218 12.4559 140.716 12.9445 139.215 13.2376C138.714 13.3354 138.314 13.4331 137.813 13.5308C136.612 13.7263 135.511 13.9217 134.31 14.1171C133.909 14.1171 133.409 14.2149 133.008 14.2149C136.812 12.9445 140.416 10.7946 143.82 8.64466C149.425 5.22435 156.232 0.33817 163.139 1.11996C158.635 5.5175 154.13 9.13328 148.024 11.0877Z" fill="white"></path><path d="M191.168 0.533276C185.062 -0.443956 179.056 1.9014 173.751 4.83309C167.845 8.15569 161.838 12.8464 155.031 13.9214C154.831 13.9214 154.831 14.1168 154.931 14.2145C154.931 14.3123 154.931 14.5077 155.132 14.5077C158.035 15.3872 161.638 14.8986 164.641 14.5077C168.145 14.0191 171.648 13.1396 174.952 11.9669C181.258 9.62155 187.164 6.1035 191.869 1.41278C192.27 0.924163 191.669 0.240106 191.168 0.533276ZM173.851 11.0874C170.948 12.0646 167.945 12.8464 164.841 13.335C164.341 13.4328 163.84 13.4328 163.24 13.5305C164.942 13.1396 166.643 12.5533 168.245 11.9669C171.648 10.6965 175.252 9.13292 177.955 6.78756C178.255 6.59211 177.855 6.20122 177.555 6.29894C174.151 8.05796 170.948 10.1102 167.244 11.3806C164.942 12.1624 162.639 12.7487 160.337 13.1396C164.141 11.7714 167.644 9.4261 171.048 7.47164C176.854 4.05132 182.96 0.924163 189.967 1.41278C185.363 5.61488 179.957 8.9375 173.851 11.0874Z" fill="white"></path><path d="M124.099 22.8147C121.297 21.7397 118.293 21.0557 115.29 20.4693C112.588 19.883 109.785 19.1012 106.982 18.9058C106.582 18.9058 106.582 19.3944 106.782 19.5898C106.782 19.6875 106.882 19.7853 106.982 19.883C112.988 22.2284 116.992 26.5282 122.097 30.1439C126.001 32.9779 131.507 35.2255 136.312 32.9779C136.712 32.7825 136.512 32.3916 136.312 32.1961C136.312 32.1961 136.312 32.1961 136.312 32.0984C132.808 28.1895 129.105 24.6714 124.099 22.8147ZM135.111 32.2938C129.004 33.4665 124.099 30.3394 119.495 26.5282C117.593 24.9646 115.691 23.2056 113.589 21.8375C115.09 22.3261 116.592 22.9124 118.093 23.4987C120.796 24.5737 123.299 26.1373 126.001 27.1145C126.202 27.2122 126.402 26.9191 126.202 26.7236C123.699 24.6714 120.396 23.1078 116.992 22.0329C118.894 22.4238 120.896 22.9124 122.698 23.4987C127.803 25.16 131.407 28.5803 135.111 32.2938Z" fill="white"></path><path d="M149.025 22.1308C145.521 20.9581 141.817 20.1763 138.113 19.59C134.71 19.0037 131.106 18.2219 127.603 18.4173C127.402 18.4173 127.302 18.6128 127.402 18.7105C127.102 18.8082 127.102 19.1991 127.402 19.2968C134.51 20.7627 140.316 24.4762 146.422 28.0919C151.327 31.0236 157.934 35.2257 163.94 33.6621C164.44 33.9553 164.941 33.369 164.54 32.8804C160.136 28.1896 155.231 24.183 149.025 22.1308ZM163.039 32.8804C156.032 33.7599 149.325 28.8737 143.719 25.3557C140.316 23.3035 136.712 21.1536 132.908 19.7854C133.308 19.7854 133.809 19.8832 134.209 19.8832C135.411 20.0786 136.612 20.1763 137.713 20.4695C138.213 20.5672 138.614 20.665 139.114 20.7627C140.616 21.1536 142.117 21.5445 143.519 22.0331C147.723 23.5966 150.926 26.1375 154.63 28.4828C154.931 28.6783 155.231 28.2874 155.031 27.9942C153.229 25.8443 150.626 24.183 147.923 22.9126C154.13 24.867 158.634 28.4828 163.039 32.8804Z" fill="white"></path><path d="M191.868 32.6845C187.164 27.9938 181.258 24.378 174.951 22.1304C171.648 20.86 168.144 20.0782 164.64 19.5896C161.637 19.1987 158.134 18.7101 155.131 19.5896C155.031 19.5896 154.931 19.785 154.931 19.8828C154.83 19.9805 154.931 20.1759 155.031 20.1759C161.938 21.2509 167.844 26.0393 173.75 29.2642C178.955 32.1959 185.061 34.5413 191.168 33.564C191.668 33.7595 192.269 33.0754 191.868 32.6845ZM190.067 32.5868C183.159 33.0754 177.053 29.9482 171.147 26.5279C167.744 24.4757 164.24 22.2281 160.436 20.86C162.739 21.3486 165.041 21.8372 167.343 22.619C171.047 23.8894 174.25 25.9416 177.654 27.7006C177.954 27.8961 178.254 27.5052 178.054 27.212C175.351 24.8666 171.748 23.2053 168.344 22.0327C166.743 21.4463 165.041 20.9577 163.339 20.4691C163.84 20.4691 164.34 20.5668 164.941 20.6645C168.044 21.1532 171.047 21.8372 173.95 22.9122C179.956 25.0621 185.362 28.3847 190.067 32.5868Z" fill="white"></path><path d="M67.8423 11.1855C70.6451 12.2605 73.6482 12.9446 76.6513 13.5309C79.354 14.1172 82.1569 14.899 84.9598 15.0944C85.3602 15.0944 85.3602 14.6059 85.16 14.4104C85.16 14.3127 85.0599 14.2149 84.9598 14.1172C78.9536 11.7719 74.9495 7.47203 69.8443 3.85627C65.9403 1.0223 60.4347 -1.22533 55.6297 1.0223C55.2293 1.21775 55.4295 1.60866 55.6297 1.80411C55.6297 1.80411 55.6297 1.80408 55.6297 1.90181C59.1333 5.81074 62.8371 9.32878 67.8423 11.1855ZM56.9311 1.70638C63.0373 0.533699 67.9423 3.66084 72.5471 7.47205C74.449 9.03562 76.351 10.7946 78.4531 12.1628C76.9516 11.6741 75.4501 11.0878 73.9485 10.5015C71.2457 9.42652 68.7432 7.86293 66.0404 6.8857C65.8402 6.78798 65.64 7.08114 65.8402 7.27659C68.3428 9.32878 71.6461 10.8924 75.0496 11.9673C73.1477 11.5764 71.1456 11.0878 69.3438 10.5015C64.1385 8.84018 60.5348 5.41986 56.9311 1.70638Z" fill="white"></path><path d="M42.9159 11.8695C46.4194 13.0422 50.1232 13.824 53.827 14.4103C57.2305 14.9967 60.8342 15.7784 64.3378 15.583C64.538 15.583 64.6381 15.3876 64.538 15.2898C64.8383 15.1921 64.8383 14.8012 64.538 14.7035C57.4307 13.2376 51.6247 9.52415 45.5185 5.90839C40.6135 2.97669 34.0067 -1.22539 28.0006 0.338182C27.5 0.0450124 26.9996 0.63134 27.4 1.11996C31.8045 5.81067 36.7095 9.81733 42.9159 11.8695ZM28.9015 1.11996C35.9087 0.240447 42.6155 5.12662 48.2213 8.64466C51.6248 10.6969 55.2284 12.8467 59.0323 14.2149C58.6319 14.2149 58.1314 14.1171 57.731 14.1171C56.5298 13.9217 55.3286 13.824 54.2274 13.5308C53.7269 13.4331 53.3265 13.3354 52.826 13.2376C51.3245 12.8467 49.8229 12.4559 48.4215 11.9672C44.2172 10.4037 41.0139 7.86286 37.3101 5.5175C37.0098 5.32206 36.7095 5.71295 36.9097 6.00612C38.7115 8.15603 41.3142 9.81734 44.017 11.0877C37.8106 9.13328 33.306 5.5175 28.9015 1.11996Z" fill="white"></path><path d="M0.172187 1.31564C4.877 6.00636 10.783 9.62211 17.0895 11.8697C20.3929 13.1401 23.8965 13.9219 27.4001 14.4106C30.4032 14.8014 33.9067 15.2901 36.9098 14.4106C37.0099 14.4106 37.11 14.2151 37.11 14.1174C37.2101 14.0196 37.11 13.8242 37.0099 13.8242C30.1028 12.7493 24.1968 7.96082 18.2907 4.73595C13.0854 1.80426 6.97917 -0.541126 0.872917 0.436106C0.372404 0.24066 -0.328326 0.924747 0.172187 1.31564ZM1.87394 1.41334C8.78101 0.924723 14.8873 4.05188 20.7933 7.47219C24.1968 9.52438 27.7004 11.772 31.5043 13.1401C29.2019 12.6515 26.8995 12.1629 24.5972 11.3811C20.8934 10.1107 17.6901 8.05852 14.2866 6.2995C13.9863 6.10406 13.686 6.49495 13.8862 6.78812C16.589 9.13348 20.1927 10.7948 23.5962 11.9675C25.1978 12.5538 26.8995 13.0424 28.6013 13.531C28.1008 13.531 27.6003 13.4333 26.9996 13.3356C23.8965 12.847 20.8934 12.1629 17.9904 11.088C11.9843 8.93806 6.57876 5.61544 1.87394 1.41334Z" fill="white"></path><path d="M55.6291 32.0984C55.3288 32.2939 55.2287 32.7825 55.529 32.9779C60.3339 35.2255 65.8395 32.8802 69.7435 30.1439C74.8488 26.5282 78.8529 22.2284 84.859 19.883C84.9591 19.7853 85.0592 19.6875 85.0592 19.5898C85.3595 19.3944 85.2594 18.9058 84.859 18.9058C82.0562 19.1012 79.3534 19.883 76.5505 20.4693C73.5474 21.1534 70.5444 21.7397 67.7415 22.8147C62.8365 24.6714 59.1327 28.1895 55.6291 32.0984ZM69.243 23.4987C71.145 22.9124 73.0469 22.4238 74.9489 22.0329C71.5454 23.1078 68.242 24.6714 65.7394 26.7236C65.5392 26.8213 65.7395 27.1145 65.9397 27.1145C68.6424 26.1373 71.145 24.5737 73.8478 23.4987C75.3493 22.9124 76.8508 22.3261 78.3524 21.8375C76.2502 23.2056 74.3483 24.9646 72.4463 26.5282C67.8416 30.3394 62.9366 33.4665 56.8303 32.2938C60.5341 28.5803 64.1378 25.16 69.243 23.4987Z" fill="white"></path><path d="M27.4999 32.8804C27.0995 33.369 27.7001 33.9553 28.1005 33.6621C34.1067 35.2257 40.7134 31.0236 45.6185 28.0919C51.7247 24.3784 57.5307 20.7627 64.6379 19.2968C64.9383 19.1991 64.9383 18.8082 64.6379 18.7105C64.6379 18.6128 64.5379 18.4173 64.4378 18.4173C60.9342 18.2219 57.3305 19.0037 53.927 19.59C50.2232 20.2741 46.5194 20.9581 43.0158 22.1308C36.7093 24.183 31.8043 28.1896 27.4999 32.8804ZM44.0168 22.9126C41.3141 24.183 38.7114 25.8443 36.9096 27.9942C36.7094 28.2874 37.0097 28.6783 37.31 28.4828C41.0138 26.1375 44.2171 23.5966 48.4214 22.0331C49.8228 21.5445 51.3243 21.0559 52.8259 20.7627C53.3264 20.665 53.7268 20.5672 54.2273 20.4695C55.4285 20.274 56.5296 20.0786 57.7309 19.8832C58.1313 19.8832 58.6318 19.7854 59.0322 19.7854C55.2283 21.0559 51.6246 23.2057 48.2211 25.3557C42.6154 28.776 35.8084 33.6622 28.9014 32.8804C33.3059 28.4828 37.8105 24.867 44.0168 22.9126Z" fill="white"></path><path d="M0.872916 33.4664C6.97917 34.4436 12.9853 32.0982 18.2907 29.1665C24.1968 25.844 30.2029 21.1532 37.0099 20.0783C37.2101 20.0783 37.2101 19.8828 37.11 19.7851C37.11 19.6874 37.11 19.4919 36.9098 19.4919C34.0068 18.6124 30.4032 19.101 27.4001 19.4919C23.8965 19.9805 20.3929 20.8601 17.0895 22.0327C10.783 24.3781 4.877 27.8961 0.172187 32.5869C-0.328326 33.0755 0.372404 33.7595 0.872916 33.4664ZM18.0905 22.9122C20.9935 21.935 23.9966 21.1532 27.0998 20.6646C27.6003 20.5669 28.1008 20.5669 28.7014 20.4692C26.9997 20.86 25.2979 21.4464 23.6963 22.0327C20.2928 23.3031 16.6891 24.8667 13.9863 27.2121C13.686 27.4075 14.0864 27.7984 14.3868 27.7007C17.7902 25.9417 20.9935 23.8895 24.6973 22.6191C26.9997 21.8373 29.302 21.251 31.6044 20.8601C27.8005 22.2282 24.2969 24.5735 20.8934 26.528C15.0875 29.9483 8.98119 33.0755 1.97402 32.5869C6.57873 28.3848 11.9843 25.0621 18.0905 22.9122Z" fill="white"></path><path d="M97.1715 14.0192C95.77 13.5306 93.0673 14.7032 93.6679 16.4623C93.6679 16.56 93.6679 16.56 93.6679 16.6577C93.5678 17.5372 93.9682 18.319 94.6689 18.8076C96.0704 19.7849 98.1725 19.2962 98.8732 17.8304C99.574 16.4623 98.673 14.5078 97.1715 14.0192ZM96.0703 18.2213C95.0693 18.1236 94.5688 16.9509 94.9692 16.1691C95.2696 15.6805 95.67 15.2896 96.3707 15.2896C97.2716 15.2896 97.8722 16.1691 97.8722 16.9509C97.7721 17.6349 96.8712 18.319 96.0703 18.2213Z" fill="white"></path></svg>