<svg xmlns="http://www.w3.org/2000/svg" width="32" height="32" viewBox="0 0 32 32" fill="none"><path d="M16 32C24.8366 32 32 24.8366 32 16C32 7.16344 24.8366 0 16 0C7.16344 0 0 7.16344 0 16C0 24.8366 7.16344 32 16 32Z" fill="#EF72AD"></path><path d="M16 0C15.2927 0 14.5962 0.0465 13.913 0.135438C21.7635 1.15813 27.826 7.87081 27.826 16C27.826 24.1292 21.7634 30.8419 13.913 31.8646C14.5962 31.9535 15.2927 32 16 32C24.8365 32 32 24.8365 32 16C32 7.1635 24.8365 0 16 0Z" fill="#EE539E"></path><path d="M21.9274 5.73901H10.0724C7.68301 5.73901 5.73907 7.68295 5.73907 10.0724V21.9275C5.73907 24.3169 7.68301 26.2609 10.0724 26.2609H21.9276C24.317 26.2609 26.2609 24.3169 26.2609 21.9275V10.0724C26.2608 7.68295 24.3169 5.73901 21.9274 5.73901ZM25.2173 21.9274C25.2173 23.7414 23.7415 25.2173 21.9274 25.2173H10.0724C8.25839 25.2173 6.78258 23.7414 6.78258 21.9274V10.0724C6.78258 8.25833 8.25839 6.78251 10.0724 6.78251H21.9276C23.7416 6.78251 25.2174 8.25833 25.2174 10.0724V21.9274H25.2173Z" fill="white"></path><path d="M15.9999 10.6086C13.0271 10.6086 10.6086 13.0271 10.6086 16C10.6086 18.9728 13.0271 21.3913 15.9999 21.3913C18.9727 21.3913 21.3912 18.9728 21.3912 16C21.3912 13.0271 18.9727 10.6086 15.9999 10.6086ZM15.9999 20.3478C13.6025 20.3478 11.6521 18.3973 11.6521 16C11.6521 13.6026 13.6026 11.6521 15.9999 11.6521C18.3972 11.6521 20.3477 13.6026 20.3477 16C20.3477 18.3973 18.3973 20.3478 15.9999 20.3478Z" fill="white"></path><path d="M21.5651 11.1303C22.3335 11.1303 22.9565 10.5074 22.9565 9.73897C22.9565 8.97057 22.3335 8.34766 21.5651 8.34766C20.7967 8.34766 20.1738 8.97057 20.1738 9.73897C20.1738 10.5074 20.7967 11.1303 21.5651 11.1303Z" fill="white"></path></svg>