<svg xmlns="http://www.w3.org/2000/svg" width="32" height="32" viewBox="0 0 32 32" fill="none"><g clip-path="url(#clip0)"><path d="M15.9993 31.9999C24.8357 31.9999 31.999 24.8366 31.999 16.0002C31.999 7.1638 24.8357 0.000488281 15.9993 0.000488281C7.16292 0.000488281 -0.000396729 7.1638 -0.000396729 16.0002C-0.000396729 24.8366 7.16292 31.9999 15.9993 31.9999Z" fill="#CB2027"></path><path d="M17.2901 21.4254C16.0805 21.3318 15.5723 20.732 14.6236 20.1562C14.1023 22.8916 13.4651 25.5139 11.5779 26.8837C10.9946 22.7493 12.4329 19.644 13.1009 16.3478C11.9623 14.4312 13.2378 10.5734 15.6393 11.524C18.5949 12.6928 13.0804 18.6506 16.7824 19.3947C20.6473 20.1716 22.2251 12.6885 19.8282 10.2546C16.3651 6.74048 9.74798 10.1747 10.5617 15.2052C10.7599 16.4351 12.0308 16.8084 11.0694 18.5054C8.85299 18.0145 8.19187 16.2665 8.27686 13.936C8.41405 10.1214 11.7045 7.45036 15.005 7.08073C19.179 6.61356 23.0967 8.61345 23.6374 12.5397C24.2458 16.971 21.753 21.7699 17.2901 21.4254Z" fill="#F1F2F2"></path></g><defs><clipPath id="clip0"><rect width="32" height="32" fill="white"></rect></clipPath></defs></svg>