<svg xmlns="http://www.w3.org/2000/svg" width="32" height="32" viewBox="0 0 32 32" fill="none"><path d="M32 16C32 21.4875 29.2437 26.325 25.0312 29.2062C24.3563 29.6687 23.6437 30.0812 22.9 30.4375C20.8125 31.4375 18.4688 32 16 32C15.0375 32 14.0938 31.9125 13.1812 31.75C11.8687 31.5187 10.6125 31.125 9.43125 30.5938C3.86875 28.0875 0 22.4937 0 16C0 8.875 4.6625 2.83125 11.1 0.7625C11.2625 0.7125 11.4187 0.6625 11.5813 0.61875C12.425 0.375 13.2937 0.2 14.1875 0.1C14.7812 0.03125 15.3875 0 16 0C16.2625 0 16.5187 0.00625 16.7812 0.01875C25.25 0.425 32 7.425 32 16Z" fill="#F1F1F1"></path><path d="M11.45 16.5938C8.91254 16.5938 6.86254 18.6438 6.90004 21.1625C6.92504 22.775 7.81254 24.175 9.11879 24.9562C8.67504 24.275 8.41254 23.4688 8.40004 22.6C8.36254 20.0875 10.4125 18.0375 12.95 18.0375C13.45 18.0375 13.9313 18.1188 14.3813 18.2625V13.2312C13.9125 13.1625 13.4313 13.125 12.95 13.125C12.925 13.125 12.9063 13.125 12.8813 13.125V16.825C12.4313 16.675 11.95 16.5938 11.45 16.5938Z" fill="#F00044"></path><path d="M22.4188 1.5H22.3813H21.0813C21.4563 3.38125 22.5125 5.01875 23.9875 6.13125C23.0188 4.85 22.4313 3.25 22.4188 1.5Z" fill="#F00044"></path><path d="M30.0688 14.0689V9.16265C29.575 9.16265 29.1 9.11265 28.6313 9.02515V12.6251C26.9313 12.6251 25.2813 12.2939 23.7313 11.6314C22.7313 11.2064 21.8 10.6626 20.9438 10.0064L20.9688 21.1251C20.9563 23.6251 19.9688 25.9689 18.1813 27.7376C16.725 29.1751 14.8813 30.0939 12.8813 30.3876C12.4125 30.4564 11.9313 30.4939 11.45 30.4939C10.2563 30.4939 9.10005 30.2751 8.0188 29.8689C8.47505 30.1314 8.9438 30.3751 9.4313 30.5939C10.6125 31.1251 11.8688 31.5189 13.1813 31.7501C13.4563 31.8001 13.7313 31.8376 14.0125 31.8751C14.1375 31.8626 14.2563 31.8439 14.3813 31.8251C16.3813 31.5314 18.225 30.6126 19.6813 29.1751C21.4688 27.4064 22.4563 25.0626 22.4688 22.5626L22.3813 11.4439C23.2313 12.1001 24.1625 12.6501 25.1688 13.0689C26.7188 13.7314 28.375 14.0689 30.0688 14.0689Z" fill="#F00044"></path><path d="M4.70621 14.4501C2.93746 16.2001 1.93121 18.6001 1.93121 21.0938C1.93121 22.4938 2.24371 23.8501 2.82496 25.0813C3.41871 25.9438 4.09996 26.7501 4.84996 27.4751C3.92496 26.0063 3.43121 24.3063 3.43121 22.5313C3.43121 20.0376 4.43746 17.6376 6.20621 15.8813C7.98746 14.1126 10.3562 13.1313 12.8812 13.1126V11.7813C12.4125 11.7125 11.9312 11.675 11.45 11.675C8.89996 11.6813 6.50621 12.6625 4.70621 14.4501Z" fill="#08FFF9"></path><path d="M28.6312 9.0186V7.6811H28.6187C26.8812 7.6811 25.2812 7.1061 23.9937 6.1311C25.1125 7.6061 26.75 8.6561 28.6312 9.0186Z" fill="#08FFF9"></path><path d="M12.6937 27.0187C13.2874 27.05 13.8562 26.9688 14.3812 26.8C16.1937 26.2062 17.4999 24.5187 17.4999 22.5312L17.5062 15.0938V1.5H21.0812C20.9874 1.03125 20.9374 0.55625 20.9312 0.0625H15.9999V13.6438L15.9937 21.0812C15.9937 23.0687 14.6874 24.7563 12.8749 25.35C12.3499 25.525 11.7812 25.6063 11.1874 25.5688C10.4312 25.525 9.72493 25.3 9.11243 24.9375C9.88743 26.1313 11.1999 26.9375 12.6937 27.0187Z" fill="#08FFF9"></path><path d="M28.6312 12.6311V9.02485C26.75 8.66235 25.1125 7.61235 23.9937 6.13735C22.5187 5.02485 21.4625 3.38735 21.0875 1.5061H17.5125V15.0874L17.5062 22.5249C17.5062 24.5124 16.2 26.1999 14.3875 26.7936C13.8625 26.9686 13.2937 27.0499 12.7 27.0124C11.2 26.9311 9.89371 26.1249 9.12496 24.9436C7.81871 24.1686 6.93121 22.7624 6.90621 21.1499C6.86871 18.6374 8.91871 16.5874 11.4562 16.5874C11.9562 16.5874 12.4375 16.6686 12.8875 16.8124V13.1124C10.3625 13.1311 7.99371 14.1124 6.21246 15.8811C4.43746 17.6374 3.43121 20.0374 3.43121 22.5311C3.43121 24.3061 3.92496 26.0061 4.84996 27.4749C5.79996 28.3999 6.86246 29.1999 8.01871 29.8686C9.09996 30.2811 10.2562 30.4936 11.45 30.4936C11.9312 30.4936 12.4125 30.4561 12.8812 30.3874C14.8812 30.0936 16.725 29.1749 18.1812 27.7374C19.9687 25.9686 20.9562 23.6249 20.9687 21.1249L20.9437 10.0061C21.7937 10.6624 22.725 11.2124 23.7312 11.6311C25.2812 12.2936 26.9375 12.6311 28.6312 12.6311Z" fill="black"></path></svg>