<svg xmlns="http://www.w3.org/2000/svg" width="32" height="32" viewBox="0 0 32 32" fill="none"><path d="M16.004 0H15.996C7.174 0 0 7.176 0 16C0 19.5 1.128 22.744 3.046 25.378L1.052 31.322L7.202 29.356C9.732 31.032 12.75 32 16.004 32C24.826 32 32 24.822 32 16C32 7.178 24.826 0 16.004 0Z" fill="#4CAF50"></path><path d="M25.3137 22.5941C24.9277 23.6841 23.3957 24.5881 22.1737 24.8521C21.3377 25.0301 20.2457 25.1721 16.5697 23.6481C11.8677 21.7001 8.83971 16.9221 8.60371 16.6121C8.37771 16.3021 6.7037 14.0821 6.7037 11.7861C6.7037 9.49012 7.86971 8.37212 8.33971 7.89212C8.72571 7.49812 9.3637 7.31812 9.97571 7.31812C10.1737 7.31812 10.3517 7.32812 10.5117 7.33612C10.9817 7.35612 11.2177 7.38412 11.5277 8.12612C11.9137 9.05612 12.8537 11.3521 12.9657 11.5881C13.0797 11.8241 13.1937 12.1441 13.0337 12.4541C12.8837 12.7741 12.7517 12.9161 12.5157 13.1881C12.2797 13.4601 12.0557 13.6681 11.8197 13.9601C11.6037 14.2141 11.3597 14.4861 11.6317 14.9561C11.9037 15.4161 12.8437 16.9501 14.2277 18.1821C16.0137 19.7721 17.4617 20.2801 17.9797 20.4961C18.3657 20.6561 18.8257 20.6181 19.1077 20.3181C19.4657 19.9321 19.9077 19.2921 20.3577 18.6621C20.6777 18.2101 21.0817 18.1541 21.5057 18.3141C21.9377 18.4641 24.2237 19.5941 24.6937 19.8281C25.1637 20.0641 25.4737 20.1761 25.5877 20.3741C25.6997 20.5721 25.6997 21.5021 25.3137 22.5941Z" fill="#FAFAFA"></path></svg>